<mxfile host="app.diagrams.net" agent="Mozilla/5.0 (Macintosh; Intel Mac OS X 10_15_7) AppleWebKit/537.36 (KHTML, like Gecko) Chrome/128.0.0.0 Safari/537.36" version="24.7.8">
  <diagram name="Page-1" id="Q6L6rpGovGUIIVx06xvF">
    <mxGraphModel dx="1297" dy="1792" grid="1" gridSize="10" guides="1" tooltips="1" connect="1" arrows="1" fold="1" page="1" pageScale="1" pageWidth="850" pageHeight="1100" math="0" shadow="0">
      <root>
        <mxCell id="0" />
        <mxCell id="1" parent="0" />
        <mxCell id="L-tfY5jnDw9Ie08kr3BI-1" value="" style="whiteSpace=wrap;html=1;aspect=fixed;" vertex="1" parent="1">
          <mxGeometry x="360" y="-100" width="230" height="230" as="geometry" />
        </mxCell>
        <mxCell id="L-tfY5jnDw9Ie08kr3BI-2" value="" style="rounded=0;whiteSpace=wrap;html=1;" vertex="1" parent="1">
          <mxGeometry x="375" y="-80" width="210" height="30" as="geometry" />
        </mxCell>
        <mxCell id="L-tfY5jnDw9Ie08kr3BI-3" value="" style="rounded=0;whiteSpace=wrap;html=1;" vertex="1" parent="1">
          <mxGeometry x="375" y="-40" width="210" height="30" as="geometry" />
        </mxCell>
        <mxCell id="L-tfY5jnDw9Ie08kr3BI-57" style="edgeStyle=orthogonalEdgeStyle;rounded=0;orthogonalLoop=1;jettySize=auto;html=1;exitX=0;exitY=0.5;exitDx=0;exitDy=0;" edge="1" parent="1" source="L-tfY5jnDw9Ie08kr3BI-4">
          <mxGeometry relative="1" as="geometry">
            <mxPoint x="455" y="586" as="targetPoint" />
            <Array as="points">
              <mxPoint x="110" y="270" />
              <mxPoint x="455" y="270" />
            </Array>
          </mxGeometry>
        </mxCell>
        <mxCell id="L-tfY5jnDw9Ie08kr3BI-4" value="" style="rounded=0;whiteSpace=wrap;html=1;rotation=-90;" vertex="1" parent="1">
          <mxGeometry x="50" y="130" width="120" height="90" as="geometry" />
        </mxCell>
        <mxCell id="L-tfY5jnDw9Ie08kr3BI-5" value="" style="rounded=0;whiteSpace=wrap;html=1;rotation=-180;" vertex="1" parent="1">
          <mxGeometry x="710" y="220" width="130" height="80" as="geometry" />
        </mxCell>
        <mxCell id="L-tfY5jnDw9Ie08kr3BI-72" style="edgeStyle=orthogonalEdgeStyle;rounded=0;orthogonalLoop=1;jettySize=auto;html=1;exitX=0;exitY=0.5;exitDx=0;exitDy=0;entryX=1;entryY=0.5;entryDx=0;entryDy=0;" edge="1" parent="1" source="L-tfY5jnDw9Ie08kr3BI-6" target="L-tfY5jnDw9Ie08kr3BI-47">
          <mxGeometry relative="1" as="geometry" />
        </mxCell>
        <mxCell id="L-tfY5jnDw9Ie08kr3BI-6" value="Modulator" style="rounded=1;whiteSpace=wrap;html=1;" vertex="1" parent="1">
          <mxGeometry x="960" y="280" width="120" height="60" as="geometry" />
        </mxCell>
        <mxCell id="L-tfY5jnDw9Ie08kr3BI-71" style="edgeStyle=orthogonalEdgeStyle;rounded=0;orthogonalLoop=1;jettySize=auto;html=1;exitX=0;exitY=0.5;exitDx=0;exitDy=0;" edge="1" parent="1" source="L-tfY5jnDw9Ie08kr3BI-7" target="L-tfY5jnDw9Ie08kr3BI-46">
          <mxGeometry relative="1" as="geometry" />
        </mxCell>
        <mxCell id="L-tfY5jnDw9Ie08kr3BI-7" value="Modulator" style="rounded=1;whiteSpace=wrap;html=1;" vertex="1" parent="1">
          <mxGeometry x="960" y="185" width="120" height="60" as="geometry" />
        </mxCell>
        <mxCell id="L-tfY5jnDw9Ie08kr3BI-70" style="edgeStyle=orthogonalEdgeStyle;rounded=0;orthogonalLoop=1;jettySize=auto;html=1;exitX=0;exitY=0.5;exitDx=0;exitDy=0;entryX=0;entryY=0.5;entryDx=0;entryDy=0;" edge="1" parent="1" source="L-tfY5jnDw9Ie08kr3BI-9" target="L-tfY5jnDw9Ie08kr3BI-14">
          <mxGeometry relative="1" as="geometry" />
        </mxCell>
        <mxCell id="L-tfY5jnDw9Ie08kr3BI-9" value="" style="ellipse;whiteSpace=wrap;html=1;aspect=fixed;" vertex="1" parent="1">
          <mxGeometry x="385" y="-75" width="20" height="20" as="geometry" />
        </mxCell>
        <mxCell id="L-tfY5jnDw9Ie08kr3BI-69" style="edgeStyle=orthogonalEdgeStyle;rounded=0;orthogonalLoop=1;jettySize=auto;html=1;exitX=0.5;exitY=0;exitDx=0;exitDy=0;entryX=0;entryY=0.5;entryDx=0;entryDy=0;" edge="1" parent="1" source="L-tfY5jnDw9Ie08kr3BI-10" target="L-tfY5jnDw9Ie08kr3BI-15">
          <mxGeometry relative="1" as="geometry">
            <Array as="points">
              <mxPoint x="425" y="-95" />
              <mxPoint x="40" y="-95" />
              <mxPoint x="40" y="175" />
            </Array>
          </mxGeometry>
        </mxCell>
        <mxCell id="L-tfY5jnDw9Ie08kr3BI-10" value="" style="ellipse;whiteSpace=wrap;html=1;aspect=fixed;" vertex="1" parent="1">
          <mxGeometry x="415" y="-75" width="20" height="20" as="geometry" />
        </mxCell>
        <mxCell id="L-tfY5jnDw9Ie08kr3BI-11" value="" style="ellipse;whiteSpace=wrap;html=1;aspect=fixed;" vertex="1" parent="1">
          <mxGeometry x="445" y="-75" width="20" height="20" as="geometry" />
        </mxCell>
        <mxCell id="L-tfY5jnDw9Ie08kr3BI-67" style="edgeStyle=orthogonalEdgeStyle;rounded=0;orthogonalLoop=1;jettySize=auto;html=1;exitX=0.5;exitY=1;exitDx=0;exitDy=0;entryX=1;entryY=0.5;entryDx=0;entryDy=0;" edge="1" parent="1" source="L-tfY5jnDw9Ie08kr3BI-12" target="L-tfY5jnDw9Ie08kr3BI-18">
          <mxGeometry relative="1" as="geometry">
            <Array as="points">
              <mxPoint x="425" y="30" />
              <mxPoint x="250" y="30" />
              <mxPoint x="250" y="175" />
            </Array>
          </mxGeometry>
        </mxCell>
        <mxCell id="L-tfY5jnDw9Ie08kr3BI-12" value="" style="ellipse;whiteSpace=wrap;html=1;aspect=fixed;" vertex="1" parent="1">
          <mxGeometry x="415" y="-35" width="20" height="20" as="geometry" />
        </mxCell>
        <mxCell id="L-tfY5jnDw9Ie08kr3BI-65" style="edgeStyle=orthogonalEdgeStyle;rounded=0;orthogonalLoop=1;jettySize=auto;html=1;exitX=0.5;exitY=1;exitDx=0;exitDy=0;entryX=1;entryY=1;entryDx=0;entryDy=0;" edge="1" parent="1" source="L-tfY5jnDw9Ie08kr3BI-13" target="L-tfY5jnDw9Ie08kr3BI-19">
          <mxGeometry relative="1" as="geometry">
            <Array as="points">
              <mxPoint x="455" y="50" />
              <mxPoint x="300" y="50" />
              <mxPoint x="300" y="212" />
            </Array>
          </mxGeometry>
        </mxCell>
        <mxCell id="L-tfY5jnDw9Ie08kr3BI-13" value="" style="ellipse;whiteSpace=wrap;html=1;aspect=fixed;" vertex="1" parent="1">
          <mxGeometry x="445" y="-35" width="20" height="20" as="geometry" />
        </mxCell>
        <mxCell id="L-tfY5jnDw9Ie08kr3BI-64" style="edgeStyle=orthogonalEdgeStyle;rounded=0;orthogonalLoop=1;jettySize=auto;html=1;exitX=0;exitY=0.5;exitDx=0;exitDy=0;entryX=0.5;entryY=0;entryDx=0;entryDy=0;" edge="1" parent="1" source="L-tfY5jnDw9Ie08kr3BI-16" target="L-tfY5jnDw9Ie08kr3BI-11">
          <mxGeometry relative="1" as="geometry">
            <Array as="points">
              <mxPoint x="20" y="205" />
              <mxPoint x="20" y="-140" />
              <mxPoint x="455" y="-140" />
            </Array>
          </mxGeometry>
        </mxCell>
        <mxCell id="L-tfY5jnDw9Ie08kr3BI-14" value="" style="ellipse;whiteSpace=wrap;html=1;aspect=fixed;" vertex="1" parent="1">
          <mxGeometry x="75" y="135" width="20" height="20" as="geometry" />
        </mxCell>
        <mxCell id="L-tfY5jnDw9Ie08kr3BI-15" value="" style="ellipse;whiteSpace=wrap;html=1;aspect=fixed;" vertex="1" parent="1">
          <mxGeometry x="75" y="165" width="20" height="20" as="geometry" />
        </mxCell>
        <mxCell id="L-tfY5jnDw9Ie08kr3BI-16" value="" style="ellipse;whiteSpace=wrap;html=1;aspect=fixed;" vertex="1" parent="1">
          <mxGeometry x="75" y="195" width="20" height="20" as="geometry" />
        </mxCell>
        <mxCell id="L-tfY5jnDw9Ie08kr3BI-17" value="" style="ellipse;whiteSpace=wrap;html=1;aspect=fixed;" vertex="1" parent="1">
          <mxGeometry x="115" y="135" width="20" height="20" as="geometry" />
        </mxCell>
        <mxCell id="L-tfY5jnDw9Ie08kr3BI-18" value="" style="ellipse;whiteSpace=wrap;html=1;aspect=fixed;" vertex="1" parent="1">
          <mxGeometry x="115" y="165" width="20" height="20" as="geometry" />
        </mxCell>
        <mxCell id="L-tfY5jnDw9Ie08kr3BI-19" value="" style="ellipse;whiteSpace=wrap;html=1;aspect=fixed;" vertex="1" parent="1">
          <mxGeometry x="115" y="195" width="20" height="20" as="geometry" />
        </mxCell>
        <mxCell id="L-tfY5jnDw9Ie08kr3BI-20" value="" style="ellipse;whiteSpace=wrap;html=1;aspect=fixed;" vertex="1" parent="1">
          <mxGeometry x="730" y="230" width="20" height="20" as="geometry" />
        </mxCell>
        <mxCell id="L-tfY5jnDw9Ie08kr3BI-21" value="" style="ellipse;whiteSpace=wrap;html=1;aspect=fixed;" vertex="1" parent="1">
          <mxGeometry x="730" y="270" width="20" height="20" as="geometry" />
        </mxCell>
        <mxCell id="L-tfY5jnDw9Ie08kr3BI-22" value="" style="ellipse;whiteSpace=wrap;html=1;aspect=fixed;" vertex="1" parent="1">
          <mxGeometry x="760" y="230" width="20" height="20" as="geometry" />
        </mxCell>
        <mxCell id="L-tfY5jnDw9Ie08kr3BI-23" value="" style="ellipse;whiteSpace=wrap;html=1;aspect=fixed;" vertex="1" parent="1">
          <mxGeometry x="760" y="270" width="20" height="20" as="geometry" />
        </mxCell>
        <mxCell id="L-tfY5jnDw9Ie08kr3BI-76" style="edgeStyle=orthogonalEdgeStyle;rounded=0;orthogonalLoop=1;jettySize=auto;html=1;exitX=0.5;exitY=0;exitDx=0;exitDy=0;" edge="1" parent="1" source="L-tfY5jnDw9Ie08kr3BI-27" target="L-tfY5jnDw9Ie08kr3BI-20">
          <mxGeometry relative="1" as="geometry">
            <Array as="points">
              <mxPoint x="565" y="-110" />
              <mxPoint x="740" y="-110" />
            </Array>
          </mxGeometry>
        </mxCell>
        <mxCell id="L-tfY5jnDw9Ie08kr3BI-27" value="" style="ellipse;whiteSpace=wrap;html=1;aspect=fixed;" vertex="1" parent="1">
          <mxGeometry x="555" y="-75" width="20" height="20" as="geometry" />
        </mxCell>
        <mxCell id="L-tfY5jnDw9Ie08kr3BI-75" style="edgeStyle=orthogonalEdgeStyle;rounded=0;orthogonalLoop=1;jettySize=auto;html=1;exitX=0.5;exitY=0;exitDx=0;exitDy=0;entryX=0.5;entryY=0;entryDx=0;entryDy=0;" edge="1" parent="1" source="L-tfY5jnDw9Ie08kr3BI-28" target="L-tfY5jnDw9Ie08kr3BI-22">
          <mxGeometry relative="1" as="geometry">
            <Array as="points">
              <mxPoint x="535" y="-130" />
              <mxPoint x="770" y="-130" />
            </Array>
          </mxGeometry>
        </mxCell>
        <mxCell id="L-tfY5jnDw9Ie08kr3BI-28" value="" style="ellipse;whiteSpace=wrap;html=1;aspect=fixed;" vertex="1" parent="1">
          <mxGeometry x="525" y="-75" width="20" height="20" as="geometry" />
        </mxCell>
        <mxCell id="L-tfY5jnDw9Ie08kr3BI-29" value="" style="ellipse;whiteSpace=wrap;html=1;aspect=fixed;" vertex="1" parent="1">
          <mxGeometry x="525" y="-35" width="20" height="20" as="geometry" />
        </mxCell>
        <mxCell id="L-tfY5jnDw9Ie08kr3BI-73" style="edgeStyle=orthogonalEdgeStyle;rounded=0;orthogonalLoop=1;jettySize=auto;html=1;exitX=0.5;exitY=1;exitDx=0;exitDy=0;entryX=0.5;entryY=1;entryDx=0;entryDy=0;" edge="1" parent="1" source="L-tfY5jnDw9Ie08kr3BI-29" target="L-tfY5jnDw9Ie08kr3BI-23">
          <mxGeometry relative="1" as="geometry">
            <Array as="points">
              <mxPoint x="535" y="350" />
              <mxPoint x="770" y="350" />
            </Array>
          </mxGeometry>
        </mxCell>
        <mxCell id="L-tfY5jnDw9Ie08kr3BI-74" style="edgeStyle=orthogonalEdgeStyle;rounded=0;orthogonalLoop=1;jettySize=auto;html=1;exitX=0.5;exitY=1;exitDx=0;exitDy=0;entryX=0.5;entryY=1;entryDx=0;entryDy=0;" edge="1" parent="1" source="L-tfY5jnDw9Ie08kr3BI-30" target="L-tfY5jnDw9Ie08kr3BI-21">
          <mxGeometry relative="1" as="geometry">
            <Array as="points">
              <mxPoint x="565" y="330" />
              <mxPoint x="740" y="330" />
            </Array>
          </mxGeometry>
        </mxCell>
        <mxCell id="L-tfY5jnDw9Ie08kr3BI-30" value="" style="ellipse;whiteSpace=wrap;html=1;aspect=fixed;" vertex="1" parent="1">
          <mxGeometry x="555" y="-35" width="20" height="20" as="geometry" />
        </mxCell>
        <mxCell id="L-tfY5jnDw9Ie08kr3BI-40" value="&lt;font style=&quot;font-size: 18px;&quot;&gt;US&lt;/font&gt;&lt;div&gt;&lt;font size=&quot;3&quot;&gt;Splitter&lt;br&gt;5Mhz-1002Mhz&lt;/font&gt;&lt;/div&gt;&lt;div&gt;&lt;font size=&quot;3&quot;&gt;RFI 130dB&lt;/font&gt;&lt;/div&gt;" style="text;strokeColor=none;fillColor=none;html=1;fontSize=24;fontStyle=1;verticalAlign=middle;align=center;" vertex="1" parent="1">
          <mxGeometry x="190" y="400" width="90" height="30" as="geometry" />
        </mxCell>
        <mxCell id="L-tfY5jnDw9Ie08kr3BI-45" value="CMTS" style="text;strokeColor=none;fillColor=none;html=1;fontSize=24;fontStyle=1;verticalAlign=middle;align=center;" vertex="1" parent="1">
          <mxGeometry x="430" y="70" width="100" height="40" as="geometry" />
        </mxCell>
        <mxCell id="L-tfY5jnDw9Ie08kr3BI-46" value="" style="ellipse;whiteSpace=wrap;html=1;aspect=fixed;" vertex="1" parent="1">
          <mxGeometry x="810" y="230" width="20" height="20" as="geometry" />
        </mxCell>
        <mxCell id="L-tfY5jnDw9Ie08kr3BI-47" value="" style="ellipse;whiteSpace=wrap;html=1;aspect=fixed;" vertex="1" parent="1">
          <mxGeometry x="810" y="270" width="20" height="20" as="geometry" />
        </mxCell>
        <mxCell id="L-tfY5jnDw9Ie08kr3BI-49" style="edgeStyle=orthogonalEdgeStyle;rounded=0;orthogonalLoop=1;jettySize=auto;html=1;exitX=1;exitY=0;exitDx=0;exitDy=0;entryX=0.5;entryY=0.5;entryDx=0;entryDy=0;entryPerimeter=0;" edge="1" parent="1" source="L-tfY5jnDw9Ie08kr3BI-46" target="L-tfY5jnDw9Ie08kr3BI-46">
          <mxGeometry relative="1" as="geometry" />
        </mxCell>
        <mxCell id="L-tfY5jnDw9Ie08kr3BI-53" value="&lt;font style=&quot;font-size: 18px;&quot;&gt;DS&lt;/font&gt;&lt;div&gt;&lt;font size=&quot;3&quot;&gt;2018GBTRK 1GHz&lt;/font&gt;&lt;/div&gt;&lt;div&gt;&lt;font size=&quot;3&quot;&gt;14dB&lt;/font&gt;&lt;/div&gt;" style="text;strokeColor=none;fillColor=none;html=1;fontSize=24;fontStyle=1;verticalAlign=middle;align=center;" vertex="1" parent="1">
          <mxGeometry x="810" y="360" width="100" height="40" as="geometry" />
        </mxCell>
        <mxCell id="L-tfY5jnDw9Ie08kr3BI-60" style="edgeStyle=orthogonalEdgeStyle;rounded=0;orthogonalLoop=1;jettySize=auto;html=1;exitX=0.5;exitY=1;exitDx=0;exitDy=0;entryX=0.5;entryY=0;entryDx=0;entryDy=0;" edge="1" parent="1" target="L-tfY5jnDw9Ie08kr3BI-59">
          <mxGeometry relative="1" as="geometry">
            <mxPoint x="520" y="700" as="sourcePoint" />
          </mxGeometry>
        </mxCell>
        <mxCell id="L-tfY5jnDw9Ie08kr3BI-54" value="Sub Band Duplexer" style="rounded=0;whiteSpace=wrap;html=1;" vertex="1" parent="1">
          <mxGeometry x="405" y="590" width="230" height="110" as="geometry" />
        </mxCell>
        <mxCell id="L-tfY5jnDw9Ie08kr3BI-55" value="CATV&lt;div&gt;54-1000Mhz&lt;/div&gt;" style="text;html=1;align=center;verticalAlign=middle;whiteSpace=wrap;rounded=0;" vertex="1" parent="1">
          <mxGeometry x="555" y="600" width="70" height="30" as="geometry" />
        </mxCell>
        <mxCell id="L-tfY5jnDw9Ie08kr3BI-56" value="SUB&lt;div&gt;5-40Mhz&lt;/div&gt;" style="text;html=1;align=center;verticalAlign=middle;whiteSpace=wrap;rounded=0;" vertex="1" parent="1">
          <mxGeometry x="425" y="600" width="70" height="30" as="geometry" />
        </mxCell>
        <mxCell id="L-tfY5jnDw9Ie08kr3BI-59" value="DCG4-24SB&lt;div&gt;Directional Coupler&lt;/div&gt;&lt;div&gt;5-1000MHz&lt;/div&gt;" style="rounded=0;whiteSpace=wrap;html=1;" vertex="1" parent="1">
          <mxGeometry x="460" y="740" width="120" height="80" as="geometry" />
        </mxCell>
        <mxCell id="L-tfY5jnDw9Ie08kr3BI-61" value="Cable Plant" style="ellipse;shape=cloud;whiteSpace=wrap;html=1;" vertex="1" parent="1">
          <mxGeometry x="590" y="830" width="120" height="80" as="geometry" />
        </mxCell>
        <mxCell id="L-tfY5jnDw9Ie08kr3BI-62" style="edgeStyle=orthogonalEdgeStyle;rounded=0;orthogonalLoop=1;jettySize=auto;html=1;exitX=0.5;exitY=1;exitDx=0;exitDy=0;entryX=0.467;entryY=0.1;entryDx=0;entryDy=0;entryPerimeter=0;" edge="1" parent="1" source="L-tfY5jnDw9Ie08kr3BI-59" target="L-tfY5jnDw9Ie08kr3BI-61">
          <mxGeometry relative="1" as="geometry" />
        </mxCell>
        <mxCell id="L-tfY5jnDw9Ie08kr3BI-68" style="edgeStyle=orthogonalEdgeStyle;rounded=0;orthogonalLoop=1;jettySize=auto;html=1;exitX=0.5;exitY=1;exitDx=0;exitDy=0;entryX=1;entryY=0.5;entryDx=0;entryDy=0;" edge="1" parent="1" source="L-tfY5jnDw9Ie08kr3BI-8" target="L-tfY5jnDw9Ie08kr3BI-17">
          <mxGeometry relative="1" as="geometry">
            <Array as="points">
              <mxPoint x="395" y="10" />
              <mxPoint x="210" y="10" />
              <mxPoint x="210" y="145" />
            </Array>
          </mxGeometry>
        </mxCell>
        <mxCell id="L-tfY5jnDw9Ie08kr3BI-8" value="" style="ellipse;whiteSpace=wrap;html=1;aspect=fixed;" vertex="1" parent="1">
          <mxGeometry x="385" y="-35" width="20" height="20" as="geometry" />
        </mxCell>
        <mxCell id="L-tfY5jnDw9Ie08kr3BI-66" style="edgeStyle=orthogonalEdgeStyle;rounded=0;orthogonalLoop=1;jettySize=auto;html=1;exitX=0.5;exitY=0;exitDx=0;exitDy=0;entryX=0.822;entryY=-0.009;entryDx=0;entryDy=0;entryPerimeter=0;" edge="1" parent="1" source="L-tfY5jnDw9Ie08kr3BI-5" target="L-tfY5jnDw9Ie08kr3BI-54">
          <mxGeometry relative="1" as="geometry" />
        </mxCell>
      </root>
    </mxGraphModel>
  </diagram>
</mxfile>
